<?xml version="1.0" encoding="utf-8"?>
<!-- Generator: Adobe Illustrator 17.0.0, SVG Export Plug-In . SVG Version: 6.00 Build 0)  -->
<!DOCTYPE svg PUBLIC "-//W3C//DTD SVG 1.1//EN" "http://www.w3.org/Graphics/SVG/1.1/DTD/svg11.dtd">
<svg version="1.1" id="圖層_1" xmlns="http://www.w3.org/2000/svg" xmlns:xlink="http://www.w3.org/1999/xlink" x="0px" y="0px"
	 width="174.141px" height="75.641px" viewBox="0 0 174.141 75.641" enable-background="new 0 0 174.141 75.641"
	 xml:space="preserve">
<path fill="#A88F67" d="M37.82,75.641C16.966,75.641,0,58.674,0,37.82S16.966,0,37.82,0s37.82,16.966,37.82,37.82
	S58.674,75.641,37.82,75.641z M37.82,3C18.62,3,3,18.62,3,37.82c0,19.201,15.62,34.821,34.82,34.821s34.82-15.62,34.82-34.821
	C72.641,18.62,57.021,3,37.82,3z"/>
<path fill="#A88F67" d="M67.688,45.871c-0.266-0.978-0.915-1.877-1.794-2.277c-2.375-1.081-5.399-0.405-8.007,1.447
	c-0.92-1.247-2.288-0.889-2.293-0.907c1.31-0.58,3.08-2.472,3.391-3.997c0.993-4.873-4.33-4.244-4.349-4.268
	c-0.056-0.088,3.149-1.834,3.529-1.99c0.726-0.299,1.827-0.287,2.091-1.015c0.846-2.335-2.777-3.445-4.558-2.504
	c0.017-0.695,0.033-1.386,0.053-2.08c0.461-0.519,1.742-1.062,2.575-1.238c1.384-0.299,2.82-0.169,2.353-2.011
	c-0.402-1.584-1.615-3.19-3.271-3.525c-0.829-0.167-1.361,0.252-2.074,0.583c0.007-3.002-1.454-6.177-4.312-5.605
	c-1.43,0.286-2.378,1.707-2.786,3.309c-0.603,2.364-0.247,5.114-0.274,5.117c-1.15,0.125-2.789-0.671-3.526,0.688
	c-0.853,1.573,1.046,3.222,2.069,4.144c1.934,1.744,4.252,1.441,4.954,1.141c0.078,0.347-0.097,1.763-0.097,1.763
	s-1.26,1.159-3.054,1.499c-0.699,0.132-1.519,0.096-1.982,0.462c-0.381,0.305-0.357,1.271-0.092,1.743
	c0.44,0.787,1.173,1.025,2.031,1.287c0.233,0.071,0.83,0.099,0.83,0.099s-2.318,1.462-3.276,3.629
	c-0.501,1.134-0.773,3.415,0.112,4.424c0.061,0.069-0.724,0.383-0.814,0.382c-5.895-0.076-11.625-5.899-13.968-8.773
	c0.001-0.042,0.002-0.084,0.002-0.121c7.595-2.53,8.835-9.966,5.567-13.121c-1.91-1.845-4.873-2.156-7.009-1.248
	c-0.037,0.016-0.038-0.019-0.037-0.077c-0.083-0.37-0.41-2.086-0.492-2.456c0.642-0.811,2.169-0.97,3.402-1.21
	c1.268-0.246,3.316-0.508,2.651-2.158c-1.034-2.567-5.115-4.859-7.451-2.075c-0.111,0.132-0.151,0.151-0.171,0.035
	c-0.824-2.15-1.709-4.282-3.211-6.063c-1.174-1.391-3.211-2.856-5.074-1.933c-1.565,0.775-3.155,3.566-1.96,5.254
	c0.689,0.974,2.34,1.145,3.383,1.777c1.621,0.995,3.199,2.481,4.054,3.806c-0.787,1-2.09,1.884-3.461,2.265
	c-0.849,0.237-1.875,0.073-2.499,0.523c-0.813,0.585-0.919,1.889-0.613,2.754c0.352,0.996,2.238,2.845,4.305,2.316
	c-1.302,2.626-4.857,10.882,1.06,13.132c0.009,0.012,0.023,0.024,0.029,0.031c-0.433,0.444-1.403,0.983-2.123,1.279
	c-1.815,0.747-3.631,1.245-5.602,1.125c-0.524-0.032-3.315-0.641-3.622-0.147c-0.019,0.03-0.067,0.096,0.053,0.155
	c0.795,0.394,1.584,0.61,2.076,1.326c0.892,1.31,1.045,3.118,2.404,3.976c0.993,0.632,2.514,0.459,3.282-0.014
	c2.733-1.682,4.274-3.175,5.824-5.178c-2.472,8.832-7.613,15.989-14.4,14.981c-5.869-0.871-7.64-8.36-8.547-12.492
	c-1.935-8.815-1.221-14.994,3.037-23.074c1.12-2.126,2.855-4.691,4.299-6.614c0.715-0.952,2.54-1.815,3.37-2.669
	c0.638-0.656,1.278-1.627,1.898-2.2c-0.612,0.566-1.225,1.134-1.836,1.702c-3.139,2.916-6.188,5.999-8.227,9.617
	C1.564,27.591-0.281,34.653,1.868,44.74c1.592,7.469,4.825,14.214,12.368,14.126c10.011-0.117,13.807-14.652,13.807-14.652
	s0.74,1.455,0.855,1.687c1.399,2.822,2.697,4.18,4.844,5.338c0.858,0.463,2.284,1.077,3.115,0.918
	c-3.93,4.174-4.775,8.682-1.957,10.373c2.369,1.421,6.105,0.376,9.312-2.896c0.653-0.666,3.986-4.169,3.986-4.169
	s0.88,1.177,1.766,1.248c-0.504,0.497-1.008,0.991-1.513,1.486c-0.725,0.882-1.444,1.787-1.981,2.862
	c-0.324-0.117-0.655-0.235-0.974-0.355c-2.149-0.6-1.374,2.529-0.984,3.481c0.856,2.087,2.772,4.222,5.302,4.708
	c1.6,0.304,2.779-1.014,3.589-1.617c1.048-0.78,2.472-1.449,3.93-1.761c1.34-0.286,3.201,0.202,3.883-0.75
	c0.237-0.333,0.134-1.073,0.058-1.479c-0.304-1.637-1.34-2.626-2.49-2.698c0.082-0.359,0.351-0.596,0.513-0.9
	c0.412-0.775,0.791-1.568,0.987-2.576c0.458-2.345-2.727-4.298-4.912-3.474c-0.018-0.017-0.032-0.034-0.052-0.051
	c0.638-0.709,2.642-2.145,3.421-4.708c0.804-0.308,2.477-0.838,4.118-0.669c1.641,0.17,1.875,0.419,2.811,0.631
	c1.141,0.22,1.849-0.461,2.053-1.232C67.87,47.061,67.847,46.452,67.688,45.871z M4.648,50.188c-0.005,0.014-0.02,0.021-0.024,0.031
	c-0.022-0.04-0.038-0.083-0.063-0.121c0.032,0.02,0.065,0.039,0.087,0.062C4.648,50.17,4.648,50.18,4.648,50.188z M4.791,50.731
	c-0.007-0.048-0.019-0.102-0.026-0.15c0.063,0.065,0.054,0.042,0.084,0.152C4.827,50.732,4.808,50.732,4.791,50.731z M21.82,30.716
	c-0.086-2.057,0.895-4.859,1.218-5.204c2.117-1.21,2.117-1.89,3.931-3.251c0,0,0.327,0.641,0.556,1.788
	c-0.78,0.505-1.674,1.348-1.794,1.45C23.038,27.78,21.826,30.704,21.82,30.716z M27.46,34.432c-0.586,0.283-3.265,0.476-3.754-0.292
	c0.258-0.985,1.851-2.933,4.321-3.865C27.986,31.146,27.725,33.185,27.46,34.432z M28.008,28.196
	c-1.758,0.699-4.4,2.421-5.907,4.172c0.925-3.619,4.092-6.062,5.699-6.893C27.895,26.4,28.008,27.005,28.008,28.196z M29.88,24.447
	c1.228-0.542,2.815-0.22,3.571,0.517c0.185,0.181,0.506,0.765,0.462,1.065c-0.087,0.593-0.963,0.778-1.331,0.844
	c-1.493,0.265-2.398,0.568-2.438,0.567c-0.038-1.058-0.132-2.079-0.265-2.948C29.88,24.479,29.865,24.454,29.88,24.447z
	 M30.065,33.511c0.14-1.398,0.173-2.783,0.154-3.955c1.21-0.441,2.419-0.643,3.572-0.644c0.036,0.001,0.076,0.001,0.107,0.002
	C33.389,32.545,30.097,33.483,30.065,33.511z M48.237,24.933c0,0-0.101-1.915,0.151-3.377c0.274-1.59,1.396-2.01,2.318-0.806
	c0.412,0.537,0.63,1.239,0.725,1.893c0.082,0.569,0.132,1.03,0.031,1.433C49.799,25.084,48.237,24.933,48.237,24.933z
	 M51.452,39.037c0.955-0.672,2.085-1.023,3.107-0.469c0.891,0.483,0.902,1.671,0.188,2.363c-0.923,0.895-2.077,1.622-3.276,2.078
	c-0.535,0.203-1.745,0.719-2.278,0.28c-0.297-0.244-0.24-0.805-0.134-1.132c0.134-0.413,0.354-0.828,0.581-1.196
	C50.038,40.314,50.69,39.573,51.452,39.037z M55.191,46.805c-0.028-0.038-3.164,2.007-3.373,2.151
	c-0.183,0.126-0.427,0.372-0.666,0.365c-0.005,0,0.327-1.007,0.36-1.083c0.175-0.4,0.433-0.772,0.677-1.138
	C52.924,45.999,54.687,45.495,55.191,46.805z M49.832,50.282c-0.013,0.004-0.03,0.015-0.05,0.02
	c-0.444-0.405-0.781-0.826-1.271-1.244c-1.282-1.094-3.298-0.59-2.996,1.527c0.143,1.001,0.844,1.734,1.145,2.565
	c-8.285,6.937-12.887,4.589-9.775-0.357c0.634-1.007,1.563-1.786,2.478-2.552c0.885-0.644,1.796-1.234,2.651-1.803
	c1.076-0.717,2.142-1.318,3.325-1.876c0.146-0.069,0.728-0.333,0.893-0.275c0.285,0.101,0.539,0.331,0.812,0.464
	c1.159,0.564,2.641,0.177,3.804-0.161c0.008,0,0.017,0,0.025,0.001c-0.222,0.397-0.337,0.632-0.462,1.004
	C50.122,48.438,49.973,49.263,49.832,50.282z M54.994,59.309c-0.452,0.991-1.15,1.892-1.936,2.641
	c-0.657,0.627-1.692,1.591-2.669,1.601c-1.215,0.013-0.87-2.138-0.616-2.82c0.433-1.144,1.16-2.2,2.101-2.985
	c0.701-0.585,1.641-1.339,2.616-0.99C55.503,57.119,55.355,58.518,54.994,59.309z M52.132,54.689
	c-0.061-0.356-0.054-0.63-0.209-1.065c-0.153-0.428-0.533-0.922-0.482-0.992c0.455-0.619,3.744-2.084,3.789-2.19
	C54.502,52.131,53.52,53.685,52.132,54.689z"/>
<path fill="#A88F67" d="M97.057,35.904c-3.192,1.008-6.524,2.072-9.016,2.856l-0.364-1.316c1.064-0.308,2.38-0.7,3.836-1.148V27.98
	h-3.472v-1.26h3.472v-6.832h-3.752V18.6h9.128v1.288h-4.088v6.832h3.556v1.26h-3.556v7.924c1.316-0.42,2.716-0.84,4.088-1.26
	L97.057,35.904z M106.241,30.136c1.651,3.584,4.563,7.28,7.195,9.071c-0.308,0.225-0.7,0.7-0.952,1.036
	c-2.52-1.959-5.292-5.6-7.027-9.211v10.835h-1.316v-10.78c-1.932,3.836-4.983,7.532-7.924,9.464
	c-0.224-0.309-0.672-0.784-0.98-1.036c3.024-1.82,6.272-5.6,8.092-9.38h-6.524v-1.26h7.336v-5.6h-4.144
	c-0.532,1.736-1.148,3.304-1.933,4.536c-0.252-0.196-0.812-0.504-1.147-0.644c1.54-2.352,2.436-5.796,2.968-9.352l1.288,0.196
	c-0.224,1.372-0.504,2.744-0.812,4.004h3.779v-5.488h1.316v5.488h6.076v1.26h-6.076v5.6h7.532v1.26H106.241z"/>
<path fill="#A88F67" d="M128.444,38.984c-2.296,1.204-6.02,2.324-8.932,2.884c-0.168-0.252-0.56-0.728-0.784-0.979
	c2.884-0.561,6.664-1.624,8.456-2.632L128.444,38.984z M120.549,22.184h-1.26V18.6h11.563c-0.308-0.616-0.644-1.288-1.008-1.848
	l1.26-0.364c0.477,0.644,0.952,1.512,1.232,2.212h10.584v3.584h-1.261v-2.408h-21.111V22.184z M124.833,26.916v-1.708h-3.444v-0.98
	h3.444v-1.624h-3.725v-1.008h8.988v1.008h-4.06v1.624h3.527v0.98h-3.527v1.624l4.088-0.28l-0.028,1.036
	c-3.724,0.308-7.588,0.588-10.248,0.784l-0.14-1.12L124.833,26.916z M140.093,38.2h-17.696v-8.792h17.696V38.2z M138.749,30.416
	h-15.064v1.568h15.064V30.416z M138.749,32.964h-15.064v1.624h15.064V32.964z M138.749,35.568h-15.064v1.624h15.064V35.568z
	 M137.041,25.152v2.128h3.107v-1.54h1.148v2.52h-9.632v-2.52h1.119v1.54h3.053v-2.128h-5.152v-0.98h5.152v-1.484h-2.8
	c-0.393,0.504-0.812,0.98-1.345,1.456c-0.252-0.252-0.644-0.532-0.896-0.644c1.12-0.98,1.96-2.156,2.436-3.22l1.148,0.168
	c-0.196,0.448-0.448,0.84-0.7,1.26h7.252v0.98h-3.892v1.484h5.124v0.98H137.041z M134.297,38.228c3.332,0.812,6.859,1.932,9.044,2.8
	l-1.176,0.924c-2.017-0.896-5.349-1.96-8.792-2.884L134.297,38.228z"/>
<path fill="#A88F67" d="M156.109,16.836c-0.168,0.308-0.393,0.644-0.589,0.98c1.456,1.036,3.221,2.324,4.173,3.164l-0.729,1.008
	c-0.924-0.84-2.604-2.184-4.06-3.22c-1.456,1.988-3.305,3.78-5.152,5.04c-0.112-0.252-0.504-0.84-0.728-1.12
	c2.268-1.484,4.592-3.78,5.936-6.244L156.109,16.836z M156.585,34.756c1.12,1.848,2.436,4.312,3.052,5.684L158.601,41
	c-0.279-0.644-0.672-1.483-1.147-2.407c-5.824,2.575-6.496,2.911-6.972,3.304c-0.084-0.336-0.309-0.924-0.532-1.232
	c0.336-0.168,0.979-0.476,0.979-1.54v-14.14h7.672v9.044h-6.439v5.628l4.815-1.988c-0.447-0.868-0.951-1.736-1.399-2.492
	L156.585,34.756z M152.161,26.104v2.688h5.18v-2.688H152.161z M157.341,32.88v-2.968h-5.18v2.968H157.341z M157.312,21.792v1.092
	h-4.647v-1.092H157.312z M174.141,19.804v4.256h-1.147v-3.08h-11.844v3.08h-1.093v-4.256h6.86c-0.252-0.84-0.784-2.016-1.204-2.856
	l1.092-0.476c0.504,0.952,1.064,2.184,1.345,2.968l-0.729,0.364H174.141z M163.249,33.356h9.771V41.7h-1.231v-1.231h-8.54v1.399
	h-1.204V23.976h9.716v6.608h-8.512V33.356z M163.249,25.152v4.256h7.364v-4.256H163.249z M163.249,34.56v4.676h8.54V34.56H163.249z"
	/>
<path fill="#A88F67" d="M90.727,53.278c0,1.056-0.202,1.837-0.607,2.342s-0.953,0.757-1.644,0.757c-0.308,0-0.566-0.045-0.773-0.134
	v-0.908c0.208,0.144,0.473,0.215,0.795,0.215c0.877,0,1.316-0.757,1.316-2.271v-5.36h0.913V53.278z"/>
<path fill="#A88F67" d="M97.221,56.237h-4.372v-8.319h4.184v0.838h-3.271v2.83h3.023v0.838h-3.023v2.976h3.459V56.237z"/>
<path fill="#A88F67" d="M108.795,47.917l-2.357,8.319h-1.08l-1.734-6.128c-0.075-0.269-0.12-0.55-0.135-0.844h-0.021
	c-0.021,0.287-0.071,0.564-0.15,0.833l-1.745,6.139h-1.059l-2.454-8.319h1.01l1.805,6.435c0.078,0.282,0.125,0.561,0.14,0.832h0.032
	c0.018-0.2,0.077-0.478,0.177-0.832l1.858-6.435h0.865l1.794,6.482c0.057,0.201,0.104,0.459,0.14,0.773h0.021
	c0.014-0.222,0.067-0.486,0.161-0.795l1.729-6.461H108.795z"/>
<path fill="#A88F67" d="M114.419,56.237h-4.372v-8.319h4.184v0.838h-3.271v2.83h3.023v0.838h-3.023v2.976h3.459V56.237z"/>
<path fill="#A88F67" d="M120.311,56.237h-4.275v-8.319h0.913v7.481h3.362V56.237z"/>
<path fill="#A88F67" d="M127.486,56.237h-1.096l-1.396-2.342c-0.297-0.501-0.567-0.83-0.811-0.985
	c-0.244-0.156-0.528-0.233-0.854-0.233h-0.821v3.561h-0.913v-8.319h2.449c0.763,0,1.369,0.195,1.82,0.588
	c0.451,0.392,0.677,0.934,0.677,1.625c0,1.149-0.614,1.896-1.842,2.239v0.021c0.229,0.101,0.418,0.231,0.566,0.393
	s0.371,0.479,0.669,0.956L127.486,56.237z M122.508,48.766v3.062h1.358c0.505,0,0.917-0.148,1.235-0.443
	c0.319-0.296,0.479-0.688,0.479-1.179c0-0.451-0.146-0.804-0.436-1.059c-0.29-0.254-0.712-0.381-1.268-0.381H122.508z"/>
<path fill="#A88F67" d="M133.781,47.917l-2.744,5.242v3.077h-0.919v-3.062l-2.68-5.258h1.047l1.891,3.803
	c0.029,0.057,0.097,0.224,0.204,0.499h0.017c0.039-0.125,0.114-0.292,0.226-0.499l1.987-3.803H133.781z"/>
<path fill="#A88F67" d="M143.896,56.237h-0.913v-3.818h-4.361v3.818h-0.913v-8.319h0.913v3.674h4.361v-3.674h0.913V56.237z"/>
<path fill="#A88F67" d="M145.55,52.176c0-1.335,0.362-2.402,1.087-3.201c0.726-0.798,1.706-1.197,2.941-1.197
	c1.146,0,2.068,0.39,2.769,1.171c0.7,0.78,1.05,1.786,1.05,3.019c0,1.328-0.354,2.396-1.061,3.201s-1.673,1.208-2.897,1.208
	c-1.171,0-2.112-0.392-2.823-1.176C145.905,54.417,145.55,53.409,145.55,52.176z M146.511,52.09c0,0.999,0.266,1.825,0.795,2.479
	c0.53,0.654,1.239,0.98,2.127,0.98c0.949,0,1.688-0.309,2.216-0.927c0.528-0.617,0.792-1.456,0.792-2.516
	c0-1.096-0.255-1.952-0.766-2.567c-0.51-0.616-1.232-0.924-2.167-0.924c-0.909,0-1.636,0.328-2.181,0.985
	C146.783,50.258,146.511,51.088,146.511,52.09z"/>
<path fill="#A88F67" d="M161.088,52.891c0,2.323-1.047,3.485-3.142,3.485c-1.998,0-2.997-1.119-2.997-3.356v-5.103h0.913v5.038
	c0,1.729,0.732,2.594,2.196,2.594c1.411,0,2.116-0.834,2.116-2.503v-5.129h0.913V52.891z"/>
<path fill="#A88F67" d="M162.802,54.797c0.232,0.212,0.568,0.388,1.007,0.529s0.844,0.212,1.217,0.212
	c1.21,0,1.815-0.44,1.815-1.321c0-0.247-0.062-0.467-0.188-0.66c-0.125-0.193-0.294-0.361-0.508-0.503
	c-0.213-0.141-0.633-0.373-1.259-0.695c-0.902-0.462-1.474-0.864-1.714-1.208c-0.239-0.344-0.359-0.732-0.359-1.166
	c0-0.669,0.271-1.205,0.816-1.605c0.544-0.401,1.228-0.602,2.052-0.602c0.83,0,1.42,0.099,1.767,0.295v1.059
	c-0.486-0.337-1.115-0.505-1.885-0.505c-0.526,0-0.956,0.111-1.289,0.335c-0.333,0.225-0.5,0.538-0.5,0.943
	c0,0.25,0.059,0.468,0.175,0.652s0.274,0.345,0.476,0.48c0.2,0.137,0.591,0.35,1.171,0.64c0.816,0.404,1.388,0.799,1.713,1.184
	c0.326,0.386,0.489,0.816,0.489,1.292c0,0.709-0.258,1.257-0.773,1.644s-1.237,0.58-2.165,0.58c-0.282,0-0.65-0.046-1.104-0.14
	c-0.453-0.093-0.771-0.206-0.953-0.338V54.797z"/>
<path fill="#A88F67" d="M173.85,56.237h-4.372v-8.319h4.185v0.838h-3.271v2.83h3.024v0.838h-3.024v2.976h3.459V56.237z"/>
</svg>
